G04 #@! TF.FileFunction,Copper,L1,Top,Signal*
%FSLAX46Y46*%
G04 Gerber Fmt 4.6, Leading zero omitted, Abs format (unit mm)*
G04 Created by KiCad (PCBNEW 4.0.7) date 02/19/18 16:57:02*
%MOMM*%
%LPD*%
G01*
G04 APERTURE LIST*
%ADD10C,0.100000*%
%ADD11C,0.250000*%
%ADD12C,0.254000*%
G04 APERTURE END LIST*
D10*
D11*
X140500000Y-92200000D02*
X139500000Y-92200000D01*
X159000000Y-95900000D02*
X157400000Y-95900000D01*
X140500000Y-92200000D02*
X141900000Y-92200000D01*
X143700000Y-92200000D02*
X141900000Y-92200000D01*
X146300000Y-92200000D02*
X143700000Y-92200000D01*
X157000000Y-92200000D02*
X146300000Y-92200000D01*
X157100000Y-92300000D02*
X157000000Y-92200000D01*
X157100000Y-95600000D02*
X157100000Y-92300000D01*
X157100000Y-95600000D02*
X157400000Y-95900000D01*
X138400000Y-93300000D02*
X138400000Y-95100000D01*
X139500000Y-92200000D02*
X138400000Y-93300000D01*
X146300000Y-92800000D02*
X143800000Y-92800000D01*
X157000000Y-97000000D02*
X156300000Y-96300000D01*
X156300000Y-96300000D02*
X156300000Y-92900000D01*
X156300000Y-92900000D02*
X156200000Y-92800000D01*
X156200000Y-92800000D02*
X146300000Y-92800000D01*
X159000000Y-97000000D02*
X157000000Y-97000000D01*
X143900000Y-92900000D02*
X143900000Y-95100000D01*
X143800000Y-92800000D02*
X143900000Y-92900000D01*
X147000000Y-95100000D02*
X147000000Y-93400000D01*
X154900000Y-93400000D02*
X147000000Y-93400000D01*
X154900000Y-93400000D02*
X155400000Y-93900000D01*
X155400000Y-93900000D02*
X155400000Y-96400000D01*
X155400000Y-96400000D02*
X157000000Y-98000000D01*
X157000000Y-98000000D02*
X159000000Y-98000000D01*
X150000000Y-95100000D02*
X150000000Y-93900000D01*
X154400000Y-93900000D02*
X150000000Y-93900000D01*
X154400000Y-93900000D02*
X154400000Y-96400000D01*
X154400000Y-96400000D02*
X157000000Y-99000000D01*
X157000000Y-99000000D02*
X159000000Y-99000000D01*
X152300000Y-97500000D02*
X154400000Y-97500000D01*
X156900000Y-100000000D02*
X154400000Y-97500000D01*
X156900000Y-100000000D02*
X159000000Y-100000000D01*
X152100000Y-103500000D02*
X154400000Y-103500000D01*
X156900000Y-101000000D02*
X154400000Y-103500000D01*
X156900000Y-101000000D02*
X159000000Y-101000000D01*
D12*
G36*
X138973000Y-106273000D02*
X137827000Y-106273000D01*
X137827000Y-105327000D01*
X138973000Y-105327000D01*
X138973000Y-106273000D01*
X138973000Y-106273000D01*
G37*
X138973000Y-106273000D02*
X137827000Y-106273000D01*
X137827000Y-105327000D01*
X138973000Y-105327000D01*
X138973000Y-106273000D01*
G36*
X144573000Y-106273000D02*
X143427000Y-106273000D01*
X143427000Y-105327000D01*
X144573000Y-105327000D01*
X144573000Y-106273000D01*
X144573000Y-106273000D01*
G37*
X144573000Y-106273000D02*
X143427000Y-106273000D01*
X143427000Y-105327000D01*
X144573000Y-105327000D01*
X144573000Y-106273000D01*
G36*
X147573000Y-106273000D02*
X146427000Y-106273000D01*
X146427000Y-105327000D01*
X147573000Y-105327000D01*
X147573000Y-106273000D01*
X147573000Y-106273000D01*
G37*
X147573000Y-106273000D02*
X146427000Y-106273000D01*
X146427000Y-105327000D01*
X147573000Y-105327000D01*
X147573000Y-106273000D01*
G36*
X150573000Y-106273000D02*
X149427000Y-106273000D01*
X149427000Y-105327000D01*
X150573000Y-105327000D01*
X150573000Y-106273000D01*
X150573000Y-106273000D01*
G37*
X150573000Y-106273000D02*
X149427000Y-106273000D01*
X149427000Y-105327000D01*
X150573000Y-105327000D01*
X150573000Y-106273000D01*
G36*
X152773000Y-103973000D02*
X151827000Y-103973000D01*
X151827000Y-103027000D01*
X152773000Y-103027000D01*
X152773000Y-103973000D01*
X152773000Y-103973000D01*
G37*
X152773000Y-103973000D02*
X151827000Y-103973000D01*
X151827000Y-103027000D01*
X152773000Y-103027000D01*
X152773000Y-103973000D01*
G36*
X152773000Y-101073000D02*
X151827000Y-101073000D01*
X151827000Y-99927000D01*
X152773000Y-99927000D01*
X152773000Y-101073000D01*
X152773000Y-101073000D01*
G37*
X152773000Y-101073000D02*
X151827000Y-101073000D01*
X151827000Y-99927000D01*
X152773000Y-99927000D01*
X152773000Y-101073000D01*
G36*
X152773000Y-98073000D02*
X151827000Y-98073000D01*
X151827000Y-96927000D01*
X152773000Y-96927000D01*
X152773000Y-98073000D01*
X152773000Y-98073000D01*
G37*
X152773000Y-98073000D02*
X151827000Y-98073000D01*
X151827000Y-96927000D01*
X152773000Y-96927000D01*
X152773000Y-98073000D01*
G36*
X150000000Y-94660000D02*
X150573000Y-94660000D01*
X150573000Y-95573000D01*
X149427000Y-95573000D01*
X149427000Y-94627000D01*
X149834099Y-94627000D01*
X150000000Y-94660000D01*
X150000000Y-94660000D01*
G37*
X150000000Y-94660000D02*
X150573000Y-94660000D01*
X150573000Y-95573000D01*
X149427000Y-95573000D01*
X149427000Y-94627000D01*
X149834099Y-94627000D01*
X150000000Y-94660000D01*
G36*
X147573000Y-95573000D02*
X146427000Y-95573000D01*
X146427000Y-94627000D01*
X147573000Y-94627000D01*
X147573000Y-95573000D01*
X147573000Y-95573000D01*
G37*
X147573000Y-95573000D02*
X146427000Y-95573000D01*
X146427000Y-94627000D01*
X147573000Y-94627000D01*
X147573000Y-95573000D01*
G36*
X144573000Y-95573000D02*
X143427000Y-95573000D01*
X143427000Y-94627000D01*
X144573000Y-94627000D01*
X144573000Y-95573000D01*
X144573000Y-95573000D01*
G37*
X144573000Y-95573000D02*
X143427000Y-95573000D01*
X143427000Y-94627000D01*
X144573000Y-94627000D01*
X144573000Y-95573000D01*
G36*
X159573000Y-97173000D02*
X158127000Y-97173000D01*
X158127000Y-96827000D01*
X159573000Y-96827000D01*
X159573000Y-97173000D01*
X159573000Y-97173000D01*
G37*
X159573000Y-97173000D02*
X158127000Y-97173000D01*
X158127000Y-96827000D01*
X159573000Y-96827000D01*
X159573000Y-97173000D01*
G36*
X159573000Y-98173000D02*
X158127000Y-98173000D01*
X158127000Y-97827000D01*
X159573000Y-97827000D01*
X159573000Y-98173000D01*
X159573000Y-98173000D01*
G37*
X159573000Y-98173000D02*
X158127000Y-98173000D01*
X158127000Y-97827000D01*
X159573000Y-97827000D01*
X159573000Y-98173000D01*
G36*
X159573000Y-99173000D02*
X158127000Y-99173000D01*
X158127000Y-98827000D01*
X159573000Y-98827000D01*
X159573000Y-99173000D01*
X159573000Y-99173000D01*
G37*
X159573000Y-99173000D02*
X158127000Y-99173000D01*
X158127000Y-98827000D01*
X159573000Y-98827000D01*
X159573000Y-99173000D01*
G36*
X159573000Y-100173000D02*
X158127000Y-100173000D01*
X158127000Y-99827000D01*
X159573000Y-99827000D01*
X159573000Y-100173000D01*
X159573000Y-100173000D01*
G37*
X159573000Y-100173000D02*
X158127000Y-100173000D01*
X158127000Y-99827000D01*
X159573000Y-99827000D01*
X159573000Y-100173000D01*
G36*
X159573000Y-101173000D02*
X158127000Y-101173000D01*
X158127000Y-100827000D01*
X159573000Y-100827000D01*
X159573000Y-101173000D01*
X159573000Y-101173000D01*
G37*
X159573000Y-101173000D02*
X158127000Y-101173000D01*
X158127000Y-100827000D01*
X159573000Y-100827000D01*
X159573000Y-101173000D01*
G36*
X165073000Y-102473000D02*
X162527000Y-102473000D01*
X162527000Y-101727000D01*
X165073000Y-101727000D01*
X165073000Y-102473000D01*
X165073000Y-102473000D01*
G37*
X165073000Y-102473000D02*
X162527000Y-102473000D01*
X162527000Y-101727000D01*
X165073000Y-101727000D01*
X165073000Y-102473000D01*
G36*
X165073000Y-95273000D02*
X162527000Y-95273000D01*
X162527000Y-94527000D01*
X165073000Y-94527000D01*
X165073000Y-95273000D01*
X165073000Y-95273000D01*
G37*
X165073000Y-95273000D02*
X162527000Y-95273000D01*
X162527000Y-94527000D01*
X165073000Y-94527000D01*
X165073000Y-95273000D01*
G36*
X138973000Y-95573000D02*
X137827000Y-95573000D01*
X137827000Y-94627000D01*
X138973000Y-94627000D01*
X138973000Y-95573000D01*
X138973000Y-95573000D01*
G37*
X138973000Y-95573000D02*
X137827000Y-95573000D01*
X137827000Y-94627000D01*
X138973000Y-94627000D01*
X138973000Y-95573000D01*
G36*
X159573000Y-96173000D02*
X158127000Y-96173000D01*
X158127000Y-95727000D01*
X159573000Y-95727000D01*
X159573000Y-96173000D01*
X159573000Y-96173000D01*
G37*
X159573000Y-96173000D02*
X158127000Y-96173000D01*
X158127000Y-95727000D01*
X159573000Y-95727000D01*
X159573000Y-96173000D01*
M02*
